HIERARCHY
ROOT root
{
	OFFSET	0	13.1	24.9
	CHANNELS 6  Xposition Yposition Zposition Xrotation Yrotation Zrotation
	JOINT spine_1
	{
		OFFSET	0	9.99999	0
		CHANNELS 3  Xrotation Yrotation Zrotation
		JOINT spine_2
		{
			OFFSET	0	112	-10
			CHANNELS 3  Xrotation Yrotation Zrotation
			JOINT spine_3
			{
				OFFSET	0	206.5	19.3
				CHANNELS 3  Xrotation Yrotation Zrotation
				JOINT spine_4
				{
					OFFSET	0	110.4	14.6
					CHANNELS 3  Xrotation Yrotation Zrotation
					JOINT neck_1
					{
						OFFSET	0	71.8	-50.3
						CHANNELS 3  Xrotation Yrotation Zrotation
						JOINT neck_2
						{
							OFFSET	0	86.2	-25.8
							CHANNELS 3  Xrotation Yrotation Zrotation
							JOINT head_ee
							{
								OFFSET	0	179.8	-8.7
								CHANNELS 3  Xrotation Yrotation Zrotation
								End Site
								{
									OFFSET	1	0	0
								}
							}
						}
					}
					JOINT left_clavicle
					{
						OFFSET	-43.2	22.4	-70.8
						CHANNELS 3  Xrotation Yrotation Zrotation
						JOINT left_shoulder
						{
							OFFSET	-93.9	-5.79999	48.7
							CHANNELS 3  Xrotation Yrotation Zrotation
							JOINT left_elbow
							{
								OFFSET	-291.4	-30.8	15.2
								CHANNELS 3  Xrotation Yrotation Zrotation
								JOINT left_lowarm_twist
								{
									OFFSET	-110.7	-3.89999	13.6
									CHANNELS 3  Xrotation Yrotation Zrotation
									JOINT left_hand
									{
										OFFSET	-110.7	-3.89999	13.6
										CHANNELS 3  Xrotation Yrotation Zrotation
										JOINT left_ee
										{
											OFFSET	-80.8	-5.10001	12.1
											CHANNELS 3  Xrotation Yrotation Zrotation
											End Site
											{
												OFFSET	1	0	0
											}
										}
									}
								}
							}
						}
					}
					JOINT right_clavicle
					{
						OFFSET	43.2	22.4	-70.8
						CHANNELS 3  Xrotation Yrotation Zrotation
						JOINT right_shoulder
						{
							OFFSET	93.9	-5.79999	48.7
							CHANNELS 3  Xrotation Yrotation Zrotation
							JOINT right_elbow
							{
								OFFSET	291.4	-30.8	15.2
								CHANNELS 3  Xrotation Yrotation Zrotation
								JOINT right_lowarm_twist
								{
									OFFSET	110.7	-3.89999	13.6
									CHANNELS 3  Xrotation Yrotation Zrotation
									JOINT right_hand
									{
										OFFSET	110.7	-3.89999	13.6
										CHANNELS 3  Xrotation Yrotation Zrotation
										JOINT right_ee
										{
											OFFSET	80.8	-5.10001	12.1
											CHANNELS 3  Xrotation Yrotation Zrotation
											End Site
											{
												OFFSET	1	0	0
											}
										}
									}
								}
							}
						}
					}
				}
			}
		}
	}
	JOINT left_hip
	{
		OFFSET	-82.8	-127.5	0.300001
		CHANNELS 3  Xrotation Yrotation Zrotation
		JOINT left_knee
		{
			OFFSET	-28.2	-396.7	2.2
			CHANNELS 3  Xrotation Yrotation Zrotation
			JOINT left_ankle
			{
				OFFSET	-11.7	-411.3	35.4
				CHANNELS 3  Xrotation Yrotation Zrotation
				JOINT left_toes
				{
					OFFSET	0	-60	-88.6
					CHANNELS 3  Xrotation Yrotation Zrotation
					JOINT left_foot_ee
					{
						OFFSET	-22.5	-16.5	-42.2
						CHANNELS 3  Xrotation Yrotation Zrotation
						End Site
						{
							OFFSET	1	0	0
						}
					}
				}
			}
		}
	}
	JOINT right_hip
	{
		OFFSET	82.8	-127.5	0.300001
		CHANNELS 3  Xrotation Yrotation Zrotation
		JOINT right_knee
		{
			OFFSET	28.2	-396.7	2.2
			CHANNELS 3  Xrotation Yrotation Zrotation
			JOINT right_ankle
			{
				OFFSET	11.7	-411.3	35.4
				CHANNELS 3  Xrotation Yrotation Zrotation
				JOINT right_toes
				{
					OFFSET	0	-60	-88.6
					CHANNELS 3  Xrotation Yrotation Zrotation
					JOINT right_foot_ee
					{
						OFFSET	22.5	-16.5	-42.2
						CHANNELS 3  Xrotation Yrotation Zrotation
						End Site
						{
							OFFSET	1	0	0
						}
					}
				}
			}
		}
	}
}
MOTION
Frames: 15
Frame Time: 0.02
3380.75 660.448 -373.652 -166.121 -52.4045 -174.209 5.96748 0.317909 0.187921 5.96745 0.305307 0.20777 5.96858 0.281235 0.239348 5.96864 0.315506 0.191929 -16.2386 4.08928 1.81419 -16.2748 6.80316 3.14484 -0.0 0.0 -0.0 4.55633 22.4531 9.01523 -70.4297 -61.403 40.8913 0.34287 -9.63976 0.0289115 78.5189 -3.66887 -8.52409 -2.19194 23.7398 -3.09966 -0.0 0.0 -0.0 12.2885 27.1494 -23.9046 -20.8338 9.02649 -58.4331 1.82969 42.1843 -0.705784 27.9085 -0.126246 3.52782 -2.27907 27.0968 26.8498 0.0 0.0 0.0 35.7466 36.5288 -6.80394 -32.2016 -0.0465396 4.87713 37.0886 26.4194 -4.92419 -3.24985 0.0 0.0 -0.0 0.0 -0.0 16.3742 0.309284 1.32582 -7.06844 -0.225835 -1.0606 38.6466 5.03296 4.81367 12.2888 -0.0 -0.0 0.0 0.0 0.0 
3393.35 658.776 -367.916 -167.126 -52.2738 -175.205 5.72589 0.449083 0.0971834 5.72579 0.441989 0.125563 5.72685 0.425222 0.174088 5.72709 0.44738 0.104746 -16.1657 1.83582 3.17549 -16.1397 1.69597 3.62615 -0.0 0.0 -0.0 4.52498 20.756 9.00126 -69.3249 -61.66 44.7585 0.35213 -9.89503 0.0304825 79.2431 -3.75155 -8.56653 -1.66256 22.1534 -0.815144 -0.0 0.0 -0.0 12.795 27.0902 -25.0726 -14.5595 7.19886 -58.1695 1.71901 40.4124 -0.632723 26.0808 -0.170768 3.29859 -3.12939 27.0689 33.0072 0.0 0.0 0.0 34.6343 38.6271 -5.79656 -17.7553 0.315603 2.69555 27.7078 26.615 -3.87603 -7.43785 0.0 0.0 -0.0 0.0 -0.0 13.7639 -0.893247 1.62712 -3.38672 -0.124552 -0.504757 39.0791 2.91491 4.82369 11.9054 -0.0 -0.0 0.0 0.0 0.0 
3408.55 653.351 -363.496 -166.153 -52.4675 -174.334 5.93915 0.488705 0.0713938 5.93903 0.483172 0.102347 5.94002 0.469314 0.153867 5.94032 0.487724 0.0778148 -16.7147 2.56266 1.16145 -16.7296 4.2629 2.01153 -0.0 0.0 -0.0 3.65435 21.9319 7.73126 -66.3572 -61.4929 47.8055 0.325584 -9.16222 0.0260879 82.1506 -4.08871 -8.72632 -2.00907 24.0706 -1.89341 -0.0 0.0 -0.0 13.0185 26.927 -25.6076 -11.1016 5.35483 -56.6737 1.71169 40.2919 -0.627989 23.1799 -0.226351 2.93224 -3.29776 27.4932 34.4051 0.0 0.0 0.0 35.9379 40.128 -5.91946 -17.6866 0.316002 2.68501 35.2235 26.1837 -4.72079 -10.4702 0.0 0.0 -0.0 0.0 -0.0 14.0068 -2.62206 2.55089 -5.11551 -0.176562 -0.764965 40.1339 2.01276 4.90522 11.6567 -0.0 -0.0 0.0 0.0 0.0 
3413.18 650.524 -362.225 -165.848 -53.2195 -174.197 5.83047 0.488342 0.0882942 5.83034 0.481734 0.11919 5.83147 0.465744 0.171339 5.83176 0.486958 0.0956312 -16.2723 3.327 0.486046 -16.3088 6.1024 1.63094 -0.0 0.0 -0.0 3.55823 20.2182 7.57558 -61.7565 -61.3665 52.1069 0.279168 -7.87377 0.0192124 82.7083 -4.15428 -8.755 -2.0913 24.113 -2.34051 -0.0 0.0 -0.0 12.7005 27.7812 -24.7681 -10.354 4.95063 -56.8317 1.94993 44.0026 -0.787938 22.8646 -0.231273 2.89227 -3.40233 27.5542 35.2155 0.0 0.0 0.0 36.989 35.4408 -4.8838 -16.5775 0.320687 2.51491 36.293 26.2304 -4.83534 -11.1539 0.0 0.0 -0.0 0.0 -0.0 13.5337 -3.75078 3.11976 -3.81485 -0.138164 -0.569053 40.324 -0.703452 4.89889 12.5642 -0.0 -0.0 0.0 0.0 0.0 
3423.54 648.565 -357.13 -165.554 -53.0474 -173.672 6.04539 0.512242 0.0738302 6.04525 0.506506 0.106277 6.04633 0.492384 0.159376 6.04666 0.511375 0.0796114 -15.924 2.89539 0.672939 -15.9481 5.1597 1.63694 -0.0 0.0 -0.0 2.70199 20.189 6.3121 -59.235 -61.2276 54.7933 0.318258 -8.95947 0.0249342 82.4229 -4.1207 -8.74041 -2.71936 25.1889 -5.34711 -0.0 0.0 -0.0 12.5265 27.6481 -24.3867 -10.323 5.16516 -57.3749 1.98577 44.5241 -0.812956 21.796 -0.246316 2.7566 -3.00157 27.7278 32.2725 0.0 0.0 0.0 37.5097 42.2062 -5.15808 -9.68507 0.276002 1.45896 36.9238 20.4914 -4.74503 -15.9823 0.0 0.0 -0.0 0.0 -0.0 13.0189 -4.25006 3.15668 -4.12181 -0.147627 -0.61521 40.6177 -2.03638 4.91686 9.82806 -0.0 -0.0 0.0 0.0 0.0 
3433.69 650.563 -355.002 -164.847 -54.4496 -173.166 5.92405 0.599002 0.199097 5.92388 0.585119 0.236811 5.92647 0.556096 0.298666 5.92684 0.596286 0.20709 -16.4679 2.40582 -0.307214 -16.4911 4.79044 0.56825 -0.0 0.0 -0.0 2.7343 19.5148 6.33527 -58.7204 -61.0505 54.4923 0.303026 -8.53712 0.0226174 81.6953 -4.03539 -8.70243 -3.18811 25.4099 -7.87669 -0.0 0.0 -0.0 13.1093 27.3121 -25.7681 -8.83755 4.03435 -55.6342 1.8449 42.4202 -0.716015 21.5701 -0.249171 2.72789 -3.11109 27.7616 33.0936 0.0 0.0 0.0 38.5919 43.1137 -4.73039 -7.87215 0.24318 1.18272 36.6577 18.4073 -4.67609 -20.7569 0.0 0.0 -0.0 0.0 -0.0 12.9437 -5.19098 3.53715 -5.35012 -0.183014 -0.800393 40.6098 -5.10055 4.9102 8.27494 -0.0 -0.0 0.0 0.0 0.0 
3448.53 646.658 -342.417 -162.865 -55.0927 -170.669 6.21392 0.505607 0.147724 6.2138 0.495182 0.179599 6.21548 0.474033 0.229684 6.21576 0.504358 0.151935 -15.2397 4.21846 -2.78086 -15.3027 9.71111 -1.20515 -0.0 0.0 -0.0 0.880705 18.3729 3.481 -50.3409 -59.7732 61.1011 0.342191 -9.62104 0.028798 83.825 -4.28639 -8.81051 -3.65088 26.8484 -9.63964 -0.0 0.0 -0.0 12.7276 24.3612 -25.2295 -8.85429 3.5241 -56.2471 2.00423 44.7889 -0.825925 19.1502 -0.272652 2.41971 -2.56568 27.8088 29.1322 0.0 0.0 0.0 39.1008 45.1061 -4.58738 -5.02243 0.173962 0.750918 38.3668 14.2204 -4.77257 -30.4647 0.0 0.0 -0.0 0.0 -0.0 12.8153 -7.40381 3.08778 -6.68238 -0.216895 -1.00203 40.8289 -6.28731 4.9303 8.58784 -0.0 -0.0 0.0 0.0 0.0 
3457.71 641.963 -334.577 -162.608 -56.3226 -169.596 6.22373 0.319148 0.206222 6.2237 0.305379 0.226112 6.22493 0.280486 0.25634 6.22498 0.31745 0.208825 -14.9163 3.94204 -4.27731 -14.9523 10.0825 -2.74168 -0.0 0.0 -0.0 -0.0663866 16.8874 1.87777 -43.5879 -58.6858 65.5366 0.345951 -9.72474 0.0294296 84.5578 -4.37365 -8.84554 -4.31641 28.0013 -12.6373 -0.0 0.0 -0.0 12.2647 24.2249 -24.1777 -8.27647 5.11741 -56.631 1.86973 42.8018 -0.732827 17.6397 -0.280703 2.22695 -2.18525 28.0382 26.5144 0.0 0.0 0.0 40.8577 46.3532 -3.96915 -1.67985 0.0655134 0.249465 31.3144 18.1537 -4.1188 -34.7858 0.0 0.0 -0.0 0.0 -0.0 12.1057 -9.19331 2.80327 -7.89975 -0.243745 -1.18692 40.9689 -8.61193 4.95124 11.2159 -0.0 -0.0 0.0 0.0 0.0 
3465.08 638.242 -328.151 -162.818 -55.859 -169.218 6.12241 0.248664 0.177244 6.1224 0.236881 0.192708 6.1232 0.215406 0.216448 6.12322 0.246886 0.179712 -14.4762 4.486 -4.54832 -14.5212 11.3072 -2.85978 -0.0 0.0 -0.0 -0.283039 14.6569 1.26979 -35.9926 -57.042 72.5574 0.231785 -6.55015 0.0132636 85.2305 -4.45415 -8.87671 -4.16331 26.7321 -12.6072 -0.0 0.0 -0.0 12.5282 22.5495 -24.945 -7.32053 6.55935 -56.2651 1.82256 42.073 -0.700998 16.7674 -0.283038 2.11556 -2.17682 26.2604 25.8335 0.0 0.0 0.0 42.5034 44.2899 -6.34369 -0.2478 0.0101241 0.0366798 24.7184 16.1177 -3.34303 -40.1145 0.0 0.0 -0.0 0.0 -0.0 12.0729 -8.92009 2.10703 -9.82165 -0.27812 -1.47981 41.5477 -12.88 5.03908 12.2482 -0.0 -0.0 0.0 0.0 0.0 
3481.44 632.759 -318.631 -164.042 -55.9376 -169.714 5.88152 0.124465 0.121978 5.88153 0.116451 0.129651 5.88179 0.101642 0.141559 5.88178 0.122723 0.12373 -13.661 4.71059 -2.38412 -13.7229 10.4453 -0.80832 -0.0 0.0 -0.0 -1.01084 14.8993 0.131451 -33.4751 -53.9805 74.0346 0.287442 -8.10407 0.0203623 85.1626 -4.446 -8.8736 -4.37425 23.6459 -15.8701 -0.0 0.0 -0.0 12.9268 23.3129 -25.7961 -6.73997 7.17466 -55.7564 1.79799 41.6867 -0.684597 26.262 -0.166681 3.32138 -1.8416 27.4143 23.9044 0.0 0.0 0.0 41.967 46.5786 -5.44174 -0.645779 0.0260515 0.0956777 18.7977 17.8458 -2.62539 -40.1181 0.0 0.0 -0.0 0.0 -0.0 10.8611 -5.28914 1.64625 -13.2168 -0.314773 -1.9994 41.7668 -15.605 5.09784 14.4949 -0.0 -0.0 0.0 0.0 0.0 
3495.73 626.404 -309.839 -164.727 -55.4194 -170.73 5.88978 0.273341 0.566553 5.88993 0.236736 0.582797 5.89215 0.171993 0.605074 5.89174 0.265393 0.570319 -12.4111 4.09117 -4.34366 -12.4194 10.5327 -2.98732 -0.0 0.0 -0.0 -1.99555 13.9378 -1.61203 -32.7388 -50.1931 74.1412 0.376705 -10.5705 0.0348483 85.2147 -4.45225 -8.87598 -4.69727 23.262 -18.0881 -0.0 0.0 -0.0 13.6118 24.4937 -27.2696 -6.79825 6.50993 -54.8401 1.53359 37.2213 -0.516455 19.3207 -0.271425 2.44144 -1.01997 28.501 18.7336 0.0 0.0 0.0 40.9202 46.3499 -5.23822 -0.358509 0.0145962 0.0530806 13.1929 18.6181 -1.88791 -32.6726 0.0 0.0 -0.0 0.0 -0.0 10.178 -6.72375 2.19585 -14.5279 -0.320678 -2.20046 41.9415 -16.6941 5.1324 15.7375 -0.0 -0.0 0.0 0.0 0.0 
3512.52 624.449 -307.344 -164.989 -54.2799 -171.936 5.96273 0.286055 0.766355 5.96303 0.236712 0.783003 5.96591 0.151247 0.803896 5.96511 0.276306 0.769923 -12.2524 6.05689 -5.80436 -12.2821 15.1992 -3.83913 -0.0 0.0 -0.0 -2.23487 12.4757 -2.25493 -29.6999 -46.5951 76.5784 0.378398 -10.6169 0.0351596 85.2107 -4.45177 -8.8758 -4.32481 17.7773 -19.4144 -0.0 0.0 -0.0 13.4953 24.28 -27.0204 -8.36583 6.34798 -55.9754 1.61366 38.6345 -0.565676 19.0583 -0.273288 2.40798 -0.00794526 28.9063 12.2608 0.0 0.0 0.0 40.6702 46.0348 -4.98325 -2.15978 0.0828823 0.321071 15.2571 21.537 -2.19145 -33.4313 0.0 0.0 -0.0 0.0 -0.0 8.76199 -6.9084 3.60028 -13.127 -0.3142 -1.98562 42.0047 -18.0309 5.16459 14.6925 -0.0 -0.0 0.0 0.0 0.0 
3528.59 626.482 -302.545 -165.25 -53.2592 -172.586 6.01626 0.330513 0.816193 6.01658 0.277908 0.835568 6.02023 0.187381 0.860403 6.01934 0.32091 0.820015 -12.5313 6.23776 -5.29902 -12.5858 15.2057 -3.25973 -0.0 0.0 -0.0 -1.48622 14.8201 -0.644557 -26.7516 -44.0846 74.6318 0.252077 -7.11794 0.0156782 85.2056 -4.45116 -8.87557 -3.71271 11.7681 -19.0556 -0.0 0.0 -0.0 13.7272 22.9427 -27.6999 -9.93746 6.05653 -56.0923 1.71435 40.3357 -0.629706 19.9533 -0.266303 2.52209 0.262276 28.6766 10.4236 0.0 0.0 0.0 39.153 45.5059 -4.3545 -2.36318 0.0900627 0.351461 16.6946 22.1103 -2.39102 -27.6458 0.0 0.0 -0.0 0.0 -0.0 8.20914 -6.13277 4.48766 -13.7704 -0.317827 -2.08427 42.1431 -20.1827 5.22637 16.1692 -0.0 -0.0 0.0 0.0 0.0 
3548.52 625.533 -295.251 -165.619 -52.2953 -173.232 6.42351 0.360036 1.08277 6.42411 0.290412 1.10348 6.4289 0.179346 1.12687 6.4273 0.355053 1.08441 -13.5203 4.25457 -4.91211 -13.5379 11.1421 -3.37521 -0.0 0.0 -0.0 -1.81272 17.0466 -0.809666 -29.1164 -44.6216 71.6247 0.240857 -6.80416 0.0143184 85.1983 -4.45028 -8.87523 -3.04591 10.6705 -15.2114 -0.0 0.0 -0.0 13.7858 25.9106 -27.5131 -13.3882 5.86152 -57.8699 1.74809 40.8873 -0.651669 22.7089 -0.233622 2.87252 0.443539 28.888 9.34834 0.0 0.0 0.0 37.6559 44.441 -4.12802 -2.88486 0.107983 0.429517 20.4549 22.7851 -2.89459 -28.7907 0.0 0.0 -0.0 0.0 -0.0 6.42096 -8.0176 5.53043 -11.666 -0.301851 -1.7618 41.7386 -19.4204 5.17221 15.5592 -0.0 -0.0 0.0 0.0 0.0 
3575.95 616.647 -296.568 -166.16 -51.4738 -174.562 6.48961 0.322806 1.03992 6.49017 0.255982 1.05835 6.49414 0.150791 1.07838 6.49266 0.319199 1.04104 -13.6211 4.40994 -3.91993 -13.6604 10.82 -2.36967 -0.0 0.0 -0.0 -2.29829 19.3353 -1.16152 -29.2159 -43.0279 71.2685 0.331423 -9.32369 0.0270259 85.1728 -4.44722 -8.87407 -3.03281 8.62701 -16.2217 -0.0 0.0 -0.0 13.4148 24.1975 -26.8414 -15.5661 5.80745 -58.0547 1.87666 42.9076 -0.737545 25.6796 -0.17956 3.2481 0.712296 28.3399 7.39253 0.0 0.0 0.0 33.6836 44.0771 -0.517354 -1.99126 0.0768522 0.295912 28.7904 24.5289 -3.95547 -27.7938 0.0 0.0 -0.0 0.0 -0.0 4.86898 -6.37122 7.88062 -13.2443 -0.314944 -2.0036 41.1868 -17.0996 5.07416 14.49 -0.0 -0.0 0.0 0.0 0.0 
